HIERARCHY
ROOT Hip
{
  OFFSET 0.0 0.0 0.0
  CHANNELS 6 Xposition Yposition Zposition Xrotation Yrotation Zrotation
  JOINT LowerSpine
  {
    OFFSET 0.0 0.061367 -0.03653
    CHANNELS 3 Xrotation Yrotation Zrotation
    JOINT MiddleSpine
    {
      OFFSET 0.0 0.056002 0.002633
      CHANNELS 3 Xrotation Yrotation Zrotation
      JOINT Chest
      {
        OFFSET 0.0 0.069296 -0.013882
        CHANNELS 3 Xrotation Yrotation Zrotation
        JOINT Neck
        {
          OFFSET 0.0 0.156156 -0.002923
          CHANNELS 3 Xrotation Yrotation Zrotation
          JOINT Head
          {
            OFFSET 0.0 0.088183 0.023986
            CHANNELS 3 Xrotation Yrotation Zrotation
            End Site
            {
              OFFSET 1e-06 0.123215 0.003678
            }
          }
        }
        JOINT LClavicle
        {
          OFFSET 0.014189 0.150698 0.046467
          CHANNELS 3 Xrotation Yrotation Zrotation
          JOINT LShoulder
          {
            OFFSET 0.082893 0.021616 -0.034976
            CHANNELS 3 Xrotation Yrotation Zrotation
            JOINT LForearm
            {
              OFFSET 0.195645 -0.000695 -0.001695
              CHANNELS 3 Xrotation Yrotation Zrotation
              JOINT LHand
              {
                OFFSET 0.163209 0.000474 -0.000977
                CHANNELS 3 Xrotation Yrotation Zrotation
                End Site
                {
                  OFFSET 0.0 0.006864 0.0
                }
              }
            }
          }
        }
        JOINT RClavicle
        {
          OFFSET -0.014189 0.150698 0.046467
          CHANNELS 3 Xrotation Yrotation Zrotation
          JOINT RShoulder
          {
            OFFSET -0.082908 0.021619 -0.034982
            CHANNELS 3 Xrotation Yrotation Zrotation
            JOINT RForearm
            {
              OFFSET -0.195645 -0.000695 -0.001695
              CHANNELS 3 Xrotation Yrotation Zrotation
              JOINT RHand
              {
                OFFSET -0.163209 0.000474 -0.000977
                CHANNELS 3 Xrotation Yrotation Zrotation
                End Site
                {
                  OFFSET 0.0 0.006864 0.0
                }
              }
            }
          }
        }
      }
    }
  }
  JOINT RThigh
  {
    OFFSET -0.072558 0.02774 -0.005953
    CHANNELS 3 Xrotation Yrotation Zrotation
    JOINT RShin
    {
      OFFSET -0.005253 -0.285537 0.0
      CHANNELS 3 Xrotation Yrotation Zrotation
      JOINT RFoot
      {
        OFFSET 0.0 -0.28038 0.0
        CHANNELS 3 Xrotation Yrotation Zrotation
        JOINT RToe
        {
          OFFSET 0.0 -0.030816 0.064441
          CHANNELS 3 Xrotation Yrotation Zrotation
          End Site
          {
            OFFSET 0.0 0.0 0.043231
          }
        }
      }
    }
  }
  JOINT LThigh
  {
    OFFSET 0.072557 0.027741 -0.005953
    CHANNELS 3 Xrotation Yrotation Zrotation
    JOINT LShin
    {
      OFFSET 0.005253 -0.285539 0.0
      CHANNELS 3 Xrotation Yrotation Zrotation
      JOINT LFoot
      {
        OFFSET 0.0 -0.28038 0.0
        CHANNELS 3 Xrotation Yrotation Zrotation
        JOINT LToe
        {
          OFFSET 0.0 -0.030816 0.064441
          CHANNELS 3 Xrotation Yrotation Zrotation
          End Site
          {
            OFFSET 0.0 0.0 0.043231
          }
        }
      }
    }
  }
}
MOTION
Frames: 7
Frame Time: 0.03333333333333333
0.02288 0.59265 -0.001958 -0.476496 -3.055557 0.059243 -0.758934 -0.229603 -0.374402 0.790364 1.736465 -0.320616 0.115621 2.616645 -1.507505 -1.835508 0.035275 0.124161 -0.000269 0.152908 0.02256 0.366945 -0.0724 -13.693129 20.698685 -27.877821 -52.479675 11.505065 -33.010624 -1.134485 0.132419 0.146518 -0.08507 0.310181 -0.977974 12.742846 17.534458 30.827089 56.874023 3.985506 46.147755 -0.335635 0.256199 -0.324047 0.032208 -2.522053 -0.413045 0.191959 4.265987 -0.951243 0.568976 -2.357774 1.958921 0.946779 0.269423 0.624124 0.062476 3.691728 8.002149 5.262217 4.164958 8.71508 -3.578812 -2.459844 0.991558 0.425849 0.010156 -0.15592 -0.008275 
0.020278 0.586047 0.001165 -1.933128 -4.914527 1.31299 -0.370797 0.055461 0.456691 0.593232 1.230509 -0.284487 1.453492 3.352429 -2.930562 -0.633234 0.020523 -0.261434 0.011312 -0.022014 -0.010642 -0.328654 -0.206432 -14.65367 20.411304 -25.637987 -53.665066 10.063123 -27.519302 -0.630629 0.063139 0.072078 -0.049396 -0.20488 0.317165 12.431469 13.885078 27.090443 55.066753 0.174136 53.509064 2.494348 -0.012922 -0.155438 0.018447 -0.469543 1.883786 0.404797 4.953889 1.479059 -1.275876 -1.491108 1.662505 0.865884 0.047068 0.254558 0.07893 8.269275 10.102613 3.492342 1.810124 8.727803 -2.87818 -2.503801 1.187865 0.825165 0.036541 -0.129177 -0.032685 
0.014077 0.58182 -0.000371 -2.939982 -2.62208 1.535173 -0.077911 0.003332 0.331529 0.46388 0.926273 -0.28166 2.365827 3.164613 -3.422798 -0.333603 0.054451 -0.106542 0.005802 -0.080364 -0.030945 -0.35013 -0.429365 -14.07517 20.674164 -25.958197 -53.114845 10.516228 -28.108343 -0.604522 0.039577 0.05853 -0.026663 -0.461585 1.277206 12.296985 14.647472 29.281315 55.503712 0.572957 56.525318 5.363031 -0.02493 -0.157541 0.016778 0.042722 1.849759 -0.044046 4.735969 1.627339 -0.862213 -1.649157 1.711429 0.801595 0.028275 0.158463 0.062138 7.67152 10.116982 4.175889 2.62211 8.452214 -2.917657 -2.394841 0.85057 0.632622 0.044146 -0.082825 -0.021622 
0.011235 0.579077 -0.000232 -3.453509 -1.32646 1.649964 0.10776 -0.06639 0.274199 0.401875 0.834762 -0.287701 2.770888 3.523167 -3.858592 -0.144262 0.097956 0.000562 0.002752 -0.113699 -0.034879 -0.291907 -0.455915 -13.657979 20.502256 -26.345627 -52.818184 10.733571 -28.561247 -0.899171 0.035982 0.062317 -0.019573 -0.56364 1.494125 12.547829 13.553797 32.332348 56.870956 3.376112 50.60611 5.381941 -0.046441 -0.136212 0.011811 0.049631 1.938538 -0.08799 5.340471 1.534965 -0.723881 -1.919125 1.524894 0.685558 0.015918 0.136955 0.057259 6.960761 10.781808 4.587499 3.352082 8.628045 -3.131333 -2.394131 0.625781 0.524096 0.046267 -0.071123 -0.019238 
0.009725 0.577677 -0.000995 -3.865027 -1.194875 1.762759 0.320922 -0.12135 0.230168 0.343631 0.841705 -0.231039 2.822958 4.088669 -3.666043 0.025943 0.140475 0.072463 0.000517 -0.132577 -0.034803 -0.300045 -0.476364 -13.245173 19.987734 -26.619284 -52.936386 10.672359 -28.573732 -0.973185 0.034208 0.065537 -0.017112 -0.657089 1.575752 12.708921 11.820036 34.289459 58.03096 5.08603 43.587292 4.883795 -0.06844 -0.116837 0.007785 -0.04164 2.136258 -0.078202 6.140487 1.441268 -0.570282 -2.196723 1.333719 0.577641 -0.000632 0.132912 0.059014 6.690381 11.305864 4.676322 3.383773 8.613871 -3.230306 -2.520734 0.48951 0.471305 0.045115 -0.069637 -0.022357 
0.006951 0.577173 -0.00105 -4.236998 -1.335223 1.861411 0.481654 -0.153579 0.197377 0.308164 0.865564 -0.186304 2.698265 4.49969 -3.305052 0.133784 0.164472 0.110616 -0.001429 -0.13649 -0.033513 -0.346952 -0.521154 -12.921709 19.563723 -26.622919 -53.049015 10.508835 -28.705717 -0.9767 0.033644 0.065264 -0.017486 -0.735768 1.608831 12.799505 10.497753 35.28006 58.718517 5.689144 38.797729 4.576005 -0.077336 -0.103934 0.006027 -0.11591 2.230688 -0.086812 6.669566 1.4087 -0.430068 -2.378005 1.221336 0.512037 -0.008616 0.129258 0.060845 6.796542 11.687222 4.589217 3.069726 8.5301 -3.300527 -2.643682 0.407217 0.422229 0.040513 -0.065732 -0.022752 
0.004984 0.577476 -0.00062 -4.217612 -1.19305 1.955419 0.560057 -0.16232 0.157483 0.26144 0.869175 -0.164791 2.40074 4.703398 -2.929101 0.186971 0.161434 0.121446 -0.004391 -0.12346 -0.030627 -0.380068 -0.496891 -12.69884 19.411564 -26.412971 -53.14344 10.505068 -29.173159 -1.010451 0.030017 0.058557 -0.013581 -0.776287 1.588066 12.882063 9.890968 35.752193 58.968731 5.926256 36.045994 4.451495 -0.06811 -0.092166 0.007203 -0.265281 2.110101 -0.239709 6.896754 1.323167 -0.238721 -2.488123 1.15144 0.49084 -0.004054 0.121409 0.05541 6.618681 11.930619 4.473636 2.83726 8.535028 -3.299049 -2.653863 0.331963 0.357272 0.030475 -0.053585 -0.01841 
